# Exported from Godot Engine
o MS_Television
v -0.300000 0.400000 0.130000
vt 0.718746 0.656260
vn -1.000000 -0.000030 -0.000122
v -0.300000 0.000000 0.130000
vt 0.718746 0.968765
vn -1.000000 -0.000030 -0.000122
v -0.300000 0.400000 -0.100000
vt 0.906249 0.656260
vn -1.000000 -0.000030 -0.000122
v -0.300000 0.000000 -0.100000
vt 0.906249 0.968765
vn -1.000000 -0.000030 -0.000122
v -0.200005 0.299992 -0.200000
vt 0.585443 0.397467
vn -0.096881 0.116875 -0.988410
v -0.200005 0.100002 -0.200000
vt 0.585443 0.227054
vn -0.096809 -0.116832 -0.988422
v 0.199995 0.299992 -0.200000
vt 0.132799 0.397467
vn 0.096813 0.116825 -0.988423
v -0.208904 0.098146 -0.197714
vt 0.593744 0.227054
vn -0.413400 -0.093303 -0.905757
v -0.208904 0.301848 -0.197714
vt 0.593744 0.397467
vn -0.413447 0.093284 -0.905737
v -0.208318 0.307366 -0.197407
vt 0.593744 0.406256
vn -0.322466 0.379865 -0.867017
v -0.216255 0.096303 -0.192195
vt 0.600092 0.224124
vn -0.677610 -0.106882 -0.727613
v -0.202303 0.307951 -0.197603
vt 0.585443 0.406256
vn -0.077634 0.470005 -0.879243
v -0.216255 0.303691 -0.192195
vt 0.600092 0.402350
vn -0.677649 0.106873 -0.727578
v -0.208318 0.092628 -0.197407
vt 0.593744 0.218753
vn -0.322395 -0.379889 -0.867033
v -0.290002 0.021393 -0.100000
vt 0.674800 0.148928
vn -0.689015 -0.183925 -0.701021
v -0.290002 0.378601 -0.100000
vt 0.674800 0.477409
vn -0.688994 0.183930 -0.701040
v -0.286505 0.386658 -0.100000
vt 0.673335 0.485847
vn -0.446215 0.483537 -0.753050
v -0.211540 0.089937 -0.193706
vt 0.597162 0.215335
vn -0.427933 -0.463499 -0.775913
v -0.286505 0.013336 -0.100000
vt 0.672358 0.140139
vn -0.446264 -0.483525 -0.753029
v -0.204601 0.085695 -0.191812
vt 0.588861 0.211429
vn -0.089696 -0.706036 -0.702473
v -0.278045 0.009998 -0.100000
vt 0.663569 0.137209
vn -0.151589 -0.700459 -0.697408
v 0.278036 0.009998 -0.100000
vt 0.054185 0.137209
vn 0.151622 -0.700450 -0.697410
v -0.211540 0.310057 -0.193706
vt 0.598138 0.410651
vn -0.427974 0.463582 -0.775841
v -0.278045 0.389996 -0.100000
vt 0.664057 0.487800
vn -0.151654 0.700470 -0.697383
v -0.204601 0.314299 -0.191812
vt 0.589349 0.413581
vn -0.089808 0.706014 -0.702481
v 0.204591 0.314299 -0.191812
vt 0.131334 0.413581
vn 0.089734 0.706041 -0.702462
v 0.278036 0.389996 -0.100000
vt 0.057038 0.487800
vn 0.151632 0.700559 -0.697298
v 0.202293 0.307951 -0.197603
vt 0.132799 0.406256
vn 0.077626 0.470079 -0.879204
v 0.286496 0.386658 -0.100000
vt 0.045396 0.485847
vn 0.446232 0.483486 -0.753072
v 0.211531 0.310057 -0.193706
vt 0.121569 0.409674
vn 0.428000 0.463494 -0.775880
v 0.289993 0.378601 -0.100000
vt 0.043931 0.475593
vn 0.688978 0.183907 -0.701062
v 0.208309 0.307366 -0.197407
vt 0.124987 0.406256
vn 0.322387 0.379851 -0.867052
v 0.216246 0.303691 -0.192195
vt 0.118639 0.400397
vn 0.677651 0.106857 -0.727578
v 0.216246 0.096303 -0.192195
vt 0.118639 0.222660
vn 0.677618 -0.106904 -0.727602
v 0.289993 0.021393 -0.100000
vt 0.043931 0.147845
vn 0.688984 -0.183816 -0.701080
v 0.208894 0.301848 -0.197714
vt 0.124987 0.397467
vn 0.413387 0.093295 -0.905763
v 0.286496 0.013336 -0.100000
vt 0.045884 0.139651
vn 0.446233 -0.483449 -0.753096
v 0.208894 0.098146 -0.197714
vt 0.124987 0.227054
vn 0.413402 -0.093285 -0.905757
v 0.211531 0.089937 -0.193706
vt 0.121569 0.215335
vn 0.427937 -0.463458 -0.775936
v 0.199995 0.100002 -0.200000
vt 0.132799 0.227054
vn 0.096882 -0.116742 -0.988426
v 0.208309 0.092628 -0.197407
vt 0.124987 0.218753
vn 0.322376 -0.379767 -0.867093
v 0.204591 0.085695 -0.191812
vt 0.128893 0.211429
vn 0.089752 -0.705925 -0.702577
v 0.202293 0.092042 -0.197603
vt 0.132799 0.218753
vn 0.077615 -0.469992 -0.879252
v -0.202303 0.092042 -0.197603
vt 0.585443 0.218753
vn -0.077642 -0.469930 -0.879282
v 0.300000 0.400000 -0.100000
vt 0.906249 0.968765
vn 1.000000 0.000015 0.000024
v 0.300000 0.000000 -0.100000
vt 0.906249 0.656260
vn 1.000000 0.000015 0.000024
v 0.300000 0.400000 0.130000
vt 0.718746 0.968765
vn 1.000000 0.000015 0.000024
v 0.300000 0.000000 0.130000
vt 0.718746 0.656260
vn 1.000000 0.000015 0.000024
v 0.300000 0.000000 0.130000
vt 0.718746 0.656260
vn 0.000119 -1.000000 -0.000155
v 0.300000 0.000000 -0.100000
vt 0.906249 0.656260
vn 0.000074 -1.000000 -0.000019
v 0.199995 0.000000 0.130000
vt 0.718746 0.562509
vn 0.000049 -1.000000 -0.000042
v -0.300000 0.000000 -0.100000
vt 0.906249 0.125002
vn 0.000089 -1.000000 -0.000003
v -0.300000 0.000000 0.130000
vt 0.718746 0.125002
vn 0.000119 -1.000000 -0.000155
v 0.300000 0.400000 -0.100000
vt 0.906249 0.125002
vn 0.000061 1.000000 0.000014
v 0.300000 0.400000 0.130000
vt 0.718746 0.125002
vn 0.000074 1.000000 0.000028
v 0.199995 0.400000 0.130000
vt 0.718746 0.218753
vn 0.000085 1.000000 0.000038
v -0.300000 0.400000 0.130000
vt 0.718746 0.656260
vn 0.000025 1.000000 0.000070
v -0.300000 0.400000 -0.100000
vt 0.906249 0.656260
vn 0.000074 1.000000 0.000028
v 0.300000 0.400000 0.130000
vt 0.687495 0.968765
vn -0.000048 0.000000 1.000000
v 0.300000 0.000000 0.130000
vt 0.687495 0.531258
vn -0.000048 0.000000 1.000000
v 0.199995 0.400000 0.130000
vt 0.562493 0.968765
vn 0.000000 -0.000000 1.000000
v 0.199995 0.000000 0.130000
vt 0.562493 0.531258
vn -0.000000 0.000000 1.000000
v 0.174141 0.374139 0.130000
vt 0.531243 0.937514
vn 0.000001 -0.000001 1.000000
v -0.274145 0.374139 0.130000
vt 0.062486 0.937514
vn -0.000000 0.000000 1.000000
v 0.174141 0.025855 0.130000
vt 0.531243 0.562509
vn -0.000000 0.000000 1.000000
v -0.300000 0.400000 0.130000
vt 0.031235 0.968765
vn -0.000000 0.000000 1.000000
v -0.300000 0.000000 0.130000
vt 0.031235 0.531258
vn 0.000001 -0.000001 1.000000
v -0.274145 0.025855 0.130000
vt 0.062486 0.562509
vn 0.000001 -0.000001 1.000000
v 0.174141 0.374139 0.099999
vt 0.312490 0.093751
vn -1.000000 0.000074 -0.000064
v 0.174141 0.374139 0.130000
vt 0.312490 0.062501
vn -1.000000 0.000074 -0.000064
v 0.174141 0.025855 0.099999
vt 0.031235 0.093751
vn -1.000000 0.000074 -0.000064
v 0.174141 0.025855 0.130000
vt 0.031235 0.062501
vn -1.000000 0.000074 -0.000064
v -0.274145 0.025855 0.099999
vt 0.312490 0.093751
vn -0.000015 1.000000 0.000024
v 0.174141 0.025855 0.099999
vt 0.687495 0.093751
vn -0.000015 1.000000 0.000024
v -0.274145 0.025855 0.130000
vt 0.312490 0.062501
vn -0.000015 1.000000 0.000024
v 0.174141 0.025855 0.130000
vt 0.687495 0.062501
vn -0.000015 1.000000 0.000024
v -0.274145 0.374139 0.099999
vt 0.031235 0.093751
vn 1.000000 0.000028 -0.000064
v -0.274145 0.025855 0.099999
vt 0.312490 0.093751
vn 1.000000 0.000028 -0.000064
v -0.274145 0.374139 0.130000
vt 0.031235 0.062501
vn 1.000000 0.000028 -0.000064
v -0.274145 0.025855 0.130000
vt 0.312490 0.062501
vn 1.000000 0.000028 -0.000064
v -0.274145 0.374139 0.130000
vt 0.687495 0.062501
vn -0.000031 -1.000000 -0.000122
v 0.174141 0.374139 0.130000
vt 0.312490 0.062501
vn -0.000031 -1.000000 -0.000122
v -0.274145 0.374139 0.099999
vt 0.687495 0.093751
vn -0.000031 -1.000000 -0.000122
v 0.174141 0.374139 0.099999
vt 0.312490 0.093751
vn -0.000031 -1.000000 -0.000122
v -0.300000 0.000000 -0.100000
vt 0.687495 0.125002
vn 0.000002 0.000032 -1.000000
v 0.300000 0.000000 -0.100000
vt 0.031235 0.125002
vn 0.000002 -0.000032 -1.000000
v -0.278045 0.009998 -0.100000
vt 0.663569 0.137209
vn 0.000001 0.000092 -1.000000
v -0.286505 0.013336 -0.100000
vt 0.672358 0.140139
vn 0.000001 0.000031 -1.000000
v -0.290002 0.021393 -0.100000
vt 0.674800 0.148928
vn 0.000005 0.000034 -1.000000
v 0.278036 0.009998 -0.100000
vt 0.054185 0.137209
vn 0.000000 -0.000031 -1.000000
v 0.286496 0.013336 -0.100000
vt 0.045884 0.139651
vn 0.000001 -0.000032 -1.000000
v 0.289993 0.021393 -0.100000
vt 0.043931 0.147845
vn -0.000005 0.000034 -1.000000
v 0.289993 0.378601 -0.100000
vt 0.043931 0.475593
vn 0.000005 0.000034 -1.000000
v 0.300000 0.400000 -0.100000
vt 0.031235 0.500008
vn 0.000006 0.000097 -1.000000
v 0.286496 0.386658 -0.100000
vt 0.045396 0.485847
vn 0.000000 0.000031 -1.000000
v 0.278036 0.389996 -0.100000
vt 0.057038 0.487800
vn 0.000002 0.000093 -1.000000
v -0.300000 0.400000 -0.100000
vt 0.687495 0.500008
vn -0.000002 0.000032 -1.000000
v -0.278045 0.389996 -0.100000
vt 0.664057 0.487800
vn -0.000000 0.000031 -1.000000
v -0.290002 0.378601 -0.100000
vt 0.674800 0.477409
vn 0.000004 -0.000034 -1.000000
v -0.286505 0.386658 -0.100000
vt 0.673335 0.485847
vn 0.000001 -0.000032 -1.000000
v 0.180000 0.319997 0.105738
vt 1.000000 0.833341
vn 0.137719 0.084246 0.986882
v 0.109998 0.319997 0.115584
vt 0.847822 0.833341
vn 0.117862 0.090469 0.988900
v 0.180000 0.380000 0.100000
vt 1.000000 1.000000
vn 0.132194 0.101890 0.985973
v 0.109998 0.380000 0.108925
vt 0.847822 1.000000
vn 0.112854 0.109145 0.987599
v 0.109998 0.260000 0.119937
vt 0.847822 0.666682
vn 0.125968 0.048481 0.990849
v 0.180000 0.260000 0.109454
vt 1.000000 0.666682
vn 0.146465 0.044885 0.988197
v 0.029994 0.319997 0.123544
vt 0.673899 0.833341
vn 0.066969 0.101446 0.992584
v 0.029994 0.380000 0.116053
vt 0.673899 1.000000
vn 0.063690 0.121570 0.990537
v 0.029994 0.260000 0.128535
vt 0.673899 0.666682
vn 0.072529 0.055245 0.995835
v 0.109998 0.199997 0.121457
vt 0.847822 0.500008
vn 0.129023 0.000000 0.991642
v 0.180000 0.199997 0.110743
vt 1.000000 0.500008
vn 0.149625 0.000000 0.988743
v 0.029994 0.199997 0.130311
vt 0.673899 0.500008
vn 0.074761 0.000000 0.997202
v 0.109998 0.140000 0.119937
vt 0.847822 0.333333
vn 0.125965 -0.048489 0.990849
v 0.180000 0.140000 0.109454
vt 1.000000 0.333333
vn 0.146467 -0.044892 0.988196
v 0.029994 0.140000 0.128535
vt 0.673899 0.333333
vn 0.072529 -0.055243 0.995835
v 0.109998 0.079997 0.115584
vt 0.847822 0.166674
vn 0.117862 -0.090468 0.988900
v 0.180000 0.079997 0.105738
vt 1.000000 0.166674
vn 0.137732 -0.084260 0.986879
v 0.109998 0.020000 0.108925
vt 0.847822 0.000000
vn 0.112847 -0.109150 0.987599
v 0.180000 0.020000 0.100000
vt 1.000000 0.000000
vn 0.132139 -0.101854 0.985984
v 0.029994 0.020000 0.116053
vt 0.673899 0.000000
vn 0.063683 -0.121567 0.990538
v 0.029994 0.079997 0.123544
vt 0.673899 0.166674
vn 0.066964 -0.101445 0.992585
v -0.050004 0.020000 0.118616
vt 0.499992 0.000000
vn 0.000004 -0.126551 0.991960
v -0.050004 0.079997 0.126446
vt 0.499992 0.166674
vn 0.000001 -0.105982 0.994368
v -0.130001 0.020000 0.116053
vt 0.326085 0.000000
vn -0.063683 -0.121573 0.990537
v -0.050004 0.140000 0.131748
vt 0.499992 0.333333
vn 0.000001 -0.058115 0.998310
v -0.130001 0.079997 0.123544
vt 0.326085 0.166674
vn -0.066963 -0.101450 0.992584
v -0.210005 0.020000 0.108925
vt 0.152163 0.000000
vn -0.112847 -0.109152 0.987599
v -0.050004 0.199997 0.133698
vt 0.499992 0.500008
vn -0.000048 0.000000 1.000000
v -0.130001 0.140000 0.128535
vt 0.326085 0.333333
vn -0.072525 -0.055249 0.995835
v -0.210005 0.079997 0.115584
vt 0.152163 0.166674
vn -0.117856 -0.090476 0.988900
v -0.280000 0.020000 0.100000
vt 0.000000 0.000000
vn -0.132188 -0.101899 0.985973
v -0.280000 0.079997 0.105738
vt 0.000000 0.166674
vn -0.137714 -0.084254 0.986882
v -0.210005 0.140000 0.119937
vt 0.152163 0.333333
vn -0.125965 -0.048488 0.990849
v -0.280000 0.140000 0.109454
vt 0.000000 0.333333
vn -0.146463 -0.044892 0.988197
v -0.130001 0.199997 0.130311
vt 0.326085 0.500008
vn -0.074761 -0.000000 0.997202
v -0.050004 0.260000 0.131748
vt 0.499992 0.666682
vn 0.000001 0.058115 0.998310
v -0.210005 0.199997 0.121457
vt 0.152163 0.500008
vn -0.129023 -0.000000 0.991642
v -0.280000 0.199997 0.110743
vt 0.000000 0.500008
vn -0.149625 -0.000000 0.988743
v -0.130001 0.260000 0.128535
vt 0.326085 0.666682
vn -0.072528 0.055244 0.995835
v -0.050004 0.319997 0.126447
vt 0.499992 0.833341
vn 0.000002 0.105982 0.994368
v -0.050004 0.380000 0.118616
vt 0.499992 1.000000
vn 0.000001 0.126551 0.991960
v -0.210005 0.260000 0.119937
vt 0.152163 0.666682
vn -0.125966 0.048487 0.990849
v -0.280000 0.260000 0.109454
vt 0.000000 0.666682
vn -0.146467 0.044889 0.988196
v -0.130001 0.319997 0.123544
vt 0.326085 0.833341
vn -0.066962 0.101446 0.992585
v -0.130001 0.380000 0.116053
vt 0.326085 1.000000
vn -0.063680 0.121568 0.990538
v -0.210005 0.319997 0.115584
vt 0.152163 0.833341
vn -0.117861 0.090468 0.988901
v -0.280000 0.319997 0.105738
vt 0.000000 0.833341
vn -0.137732 0.084258 0.986879
v -0.210005 0.380000 0.108925
vt 0.152163 1.000000
vn -0.112846 0.109150 0.987599
v -0.280000 0.380000 0.100000
vt 0.000000 1.000000
vn -0.132138 0.101853 0.985984
f 3/3/3 2/2/2 1/1/1
f 4/4/4 2/2/2 3/3/3
f 7/7/7 6/6/6 5/5/5
f 8/8/8 5/5/5 6/6/6
f 9/9/9 5/5/5 8/8/8
f 10/10/10 5/5/5 9/9/9
f 11/11/11 9/9/9 8/8/8
f 12/12/12 5/5/5 10/10/10
f 5/5/5 12/12/12 7/7/7
f 9/9/9 13/13/13 10/10/10
f 13/13/13 9/9/9 11/11/11
f 14/14/14 11/11/11 8/8/8
f 8/8/8 6/6/6 14/14/14
f 11/11/11 15/15/15 13/13/13
f 13/13/13 15/15/15 16/16/16
f 16/16/16 17/17/17 13/13/13
f 11/11/11 18/18/18 15/15/15
f 18/18/18 11/11/11 14/14/14
f 15/15/15 18/18/18 19/19/19
f 18/18/18 20/20/20 19/19/19
f 14/14/14 20/20/20 18/18/18
f 19/19/19 20/20/20 21/21/21
f 21/21/21 20/20/20 22/22/22
f 13/13/13 17/17/17 23/23/23
f 10/10/10 13/13/13 23/23/23
f 17/17/17 24/24/24 23/23/23
f 23/23/23 25/25/25 10/10/10
f 23/23/23 24/24/24 25/25/25
f 10/10/10 25/25/25 12/12/12
f 24/24/24 26/26/26 25/25/25
f 27/27/27 26/26/26 24/24/24
f 12/12/12 25/25/25 28/28/28
f 28/28/28 25/25/25 26/26/26
f 29/29/29 26/26/26 27/27/27
f 7/7/7 12/12/12 28/28/28
f 30/30/30 26/26/26 29/29/29
f 31/31/31 30/30/30 29/29/29
f 28/28/28 26/26/26 32/32/32
f 32/32/32 26/26/26 30/30/30
f 32/32/32 7/7/7 28/28/28
f 33/33/33 30/30/30 31/31/31
f 30/30/30 33/33/33 32/32/32
f 31/31/31 34/34/34 33/33/33
f 35/35/35 34/34/34 31/31/31
f 32/32/32 33/33/33 36/36/36
f 36/36/36 7/7/7 32/32/32
f 35/35/35 37/37/37 34/34/34
f 38/38/38 33/33/33 34/34/34
f 36/36/36 33/33/33 38/38/38
f 34/34/34 37/37/37 39/39/39
f 37/37/37 22/22/22 39/39/39
f 7/7/7 36/36/36 40/40/40
f 40/40/40 36/36/36 38/38/38
f 40/40/40 6/6/6 7/7/7
f 38/38/38 34/34/34 41/41/41
f 41/41/41 34/34/34 39/39/39
f 41/41/41 40/40/40 38/38/38
f 39/39/39 22/22/22 42/42/42
f 39/39/39 42/42/42 41/41/41
f 22/22/22 20/20/20 42/42/42
f 43/43/43 40/40/40 41/41/41
f 41/41/41 42/42/42 43/43/43
f 40/40/40 43/43/43 6/6/6
f 44/44/44 42/42/42 20/20/20
f 43/43/43 42/42/42 44/44/44
f 6/6/6 43/43/43 44/44/44
f 44/44/44 20/20/20 14/14/14
f 14/14/14 6/6/6 44/44/44
f 47/47/47 46/46/46 45/45/45
f 48/48/48 46/46/46 47/47/47
f 51/51/51 50/50/50 49/49/49
f 51/51/51 52/52/52 50/50/50
f 53/53/53 52/52/52 51/51/51
f 56/56/56 55/55/55 54/54/54
f 56/56/56 54/54/54 57/57/57
f 57/57/57 54/54/54 58/58/58
f 61/61/61 60/60/60 59/59/59
f 62/62/62 60/60/60 61/61/61
f 61/61/61 63/63/63 62/62/62
f 63/63/63 61/61/61 64/64/64
f 62/62/62 63/63/63 65/65/65
f 64/64/64 61/61/61 66/66/66
f 62/62/62 65/65/65 67/67/67
f 66/66/66 68/68/68 64/64/64
f 67/67/67 65/65/65 68/68/68
f 67/67/67 68/68/68 66/66/66
f 71/71/71 70/70/70 69/69/69
f 72/72/72 70/70/70 71/71/71
f 75/75/75 74/74/74 73/73/73
f 76/76/76 74/74/74 75/75/75
f 79/79/79 78/78/78 77/77/77
f 80/80/80 78/78/78 79/79/79
f 83/83/83 82/82/82 81/81/81
f 84/84/84 82/82/82 83/83/83
f 87/87/87 86/86/86 85/85/85
f 85/85/85 88/88/88 87/87/87
f 85/85/85 89/89/89 88/88/88
f 90/90/90 86/86/86 87/87/87
f 86/86/86 90/90/90 91/91/91
f 86/86/86 91/91/91 92/92/92
f 93/93/93 86/86/86 92/92/92
f 94/94/94 86/86/86 93/93/93
f 94/94/94 93/93/93 95/95/95
f 94/94/94 95/95/95 96/96/96
f 96/96/96 97/97/97 94/94/94
f 85/85/85 97/97/97 89/89/89
f 98/98/98 97/97/97 96/96/96
f 89/89/89 97/97/97 99/99/99
f 97/97/97 98/98/98 100/100/100
f 97/97/97 100/100/100 99/99/99
f 103/103/103 102/102/102 101/101/101
f 104/104/104 102/102/102 103/103/103
f 102/102/102 105/105/105 101/101/101
f 101/101/101 105/105/105 106/106/106
f 104/104/104 107/107/107 102/102/102
f 108/108/108 107/107/107 104/104/104
f 102/102/102 109/109/109 105/105/105
f 107/107/107 109/109/109 102/102/102
f 105/105/105 110/110/110 106/106/106
f 106/106/106 110/110/110 111/111/111
f 109/109/109 112/112/112 105/105/105
f 105/105/105 112/112/112 110/110/110
f 110/110/110 113/113/113 111/111/111
f 111/111/111 113/113/113 114/114/114
f 112/112/112 115/115/115 110/110/110
f 110/110/110 115/115/115 113/113/113
f 113/113/113 116/116/116 114/114/114
f 114/114/114 116/116/116 117/117/117
f 116/116/116 118/118/118 117/117/117
f 117/117/117 118/118/118 119/119/119
f 116/116/116 120/120/120 118/118/118
f 113/113/113 121/121/121 116/116/116
f 121/121/121 120/120/120 116/116/116
f 115/115/115 121/121/121 113/113/113
f 121/121/121 122/122/122 120/120/120
f 123/123/123 122/122/122 121/121/121
f 115/115/115 123/123/123 121/121/121
f 123/123/123 124/124/124 122/122/122
f 125/125/125 123/123/123 115/115/115
f 112/112/112 125/125/125 115/115/115
f 126/126/126 124/124/124 123/123/123
f 125/125/125 126/126/126 123/123/123
f 126/126/126 127/127/127 124/124/124
f 128/128/128 125/125/125 112/112/112
f 109/109/109 128/128/128 112/112/112
f 129/129/129 126/126/126 125/125/125
f 128/128/128 129/129/129 125/125/125
f 130/130/130 127/127/127 126/126/126
f 129/129/129 130/130/130 126/126/126
f 130/130/130 131/131/131 127/127/127
f 132/132/132 131/131/131 130/130/130
f 133/133/133 132/132/132 130/130/130
f 133/133/133 130/130/130 129/129/129
f 134/134/134 132/132/132 133/133/133
f 135/135/135 129/129/129 128/128/128
f 135/135/135 133/133/133 129/129/129
f 136/136/136 128/128/128 109/109/109
f 136/136/136 135/135/135 128/128/128
f 107/107/107 136/136/136 109/109/109
f 137/137/137 134/134/134 133/133/133
f 137/137/137 133/133/133 135/135/135
f 138/138/138 134/134/134 137/137/137
f 139/139/139 135/135/135 136/136/136
f 139/139/139 137/137/137 135/135/135
f 140/140/140 136/136/136 107/107/107
f 140/140/140 139/139/139 136/136/136
f 108/108/108 140/140/140 107/107/107
f 141/141/141 140/140/140 108/108/108
f 142/142/142 138/138/138 137/137/137
f 142/142/142 137/137/137 139/139/139
f 143/143/143 138/138/138 142/142/142
f 144/144/144 139/139/139 140/140/140
f 141/141/141 144/144/144 140/140/140
f 144/144/144 142/142/142 139/139/139
f 145/145/145 144/144/144 141/141/141
f 146/146/146 143/143/143 142/142/142
f 146/146/146 142/142/142 144/144/144
f 145/145/145 146/146/146 144/144/144
f 147/147/147 143/143/143 146/146/146
f 148/148/148 146/146/146 145/145/145
f 148/148/148 147/147/147 146/146/146
f 149/149/149 147/147/147 148/148/148
