# Exported from Godot Engine
o MS_Television_Collider
v -0.300000 0.400000 0.100000
vn -1.000000 -0.000015 0.000024
v -0.300000 0.000000 0.100000
vn -1.000000 -0.000015 0.000024
v -0.300000 0.400000 -0.200000
vn -1.000000 -0.000015 0.000024
v -0.300000 0.000000 -0.200000
vn -1.000000 -0.000015 0.000024
v -0.300000 0.400000 -0.200000
vn 0.000031 -0.000030 -1.000000
v -0.300000 0.000000 -0.200000
vn 0.000031 -0.000030 -1.000000
v 0.300000 0.400000 -0.200000
vn 0.000031 -0.000030 -1.000000
v 0.300000 0.000000 -0.200000
vn 0.000031 -0.000030 -1.000000
v 0.300000 0.400000 -0.200000
vn 1.000000 -0.000031 -0.000000
v 0.300000 0.000000 -0.200000
vn 1.000000 -0.000031 -0.000000
v 0.300000 0.400000 0.100000
vn 1.000000 -0.000031 -0.000000
v 0.300000 0.000000 0.100000
vn 1.000000 -0.000031 -0.000000
v 0.300000 0.400000 0.100000
vn 0.000000 -0.000031 1.000000
v 0.300000 0.000000 0.100000
vn 0.000000 -0.000031 1.000000
v -0.300000 0.400000 0.100000
vn 0.000000 -0.000031 1.000000
v -0.300000 0.000000 0.100000
vn 0.000000 -0.000031 1.000000
v 0.300000 0.000000 -0.200000
vn -0.000031 -1.000000 -0.000122
v -0.300000 0.000000 -0.200000
vn -0.000031 -1.000000 -0.000122
v 0.300000 0.000000 0.100000
vn -0.000031 -1.000000 -0.000122
v -0.300000 0.000000 0.100000
vn -0.000031 -1.000000 -0.000122
v -0.300000 0.400000 -0.200000
vn -0.000030 1.000000 -0.000000
v 0.300000 0.400000 -0.200000
vn -0.000030 1.000000 -0.000000
v -0.300000 0.400000 0.100000
vn -0.000030 1.000000 -0.000000
v 0.300000 0.400000 0.100000
vn -0.000030 1.000000 -0.000000
f 3//3 2//2 1//1
f 4//4 2//2 3//3
f 7//7 6//6 5//5
f 8//8 6//6 7//7
f 11//11 10//10 9//9
f 12//12 10//10 11//11
f 15//15 14//14 13//13
f 16//16 14//14 15//15
f 19//19 18//18 17//17
f 20//20 18//18 19//19
f 23//23 22//22 21//21
f 24//24 22//22 23//23
